<?xml version="1.0" encoding="utf-8"?>
<!-- Generator: Adobe Illustrator 19.2.1, SVG Export Plug-In . SVG Version: 6.00 Build 0)  -->
<svg version="1.1" id="Layer_1" xmlns="http://www.w3.org/2000/svg" xmlns:xlink="http://www.w3.org/1999/xlink" x="0px" y="0px"
	 viewBox="0 0 494.6 101" style="enable-background:new 0 0 494.6 101;" xml:space="preserve">
<style type="text/css">
	.st0{fill:#FFFFFF;}
</style>
<g>
	<path class="st0" d="M27.8,55.9c1.3-0.6,2.5-1.1,3.8-1.7c4.6-2.2,8.3-0.7,9.9,4.1c0.8,2.4,1,5.1,1.6,7.6c0.5,1.8,1.5,3.6,1.7,5.4
		c0.2,1.8-0.3,3.7-0.5,5.6c-0.2,2.8-0.4,5.6-0.6,8.4c-0.1,1.3-0.4,2.5-1.9,2.9c-1.4,0.4-2.7,0-3.7-1.1c-1.4-1.5-2.6-3.1-3.8-4.7
		c-1.9-2.6-2.6-2.8-5.3-1.3c-0.8,0.4-1.6,0.8-2.6,1.2c-0.9,2,1.3,4.6-0.5,6.6c-1.7-0.1-2.2-1.3-2.4-2.5c-0.7-4.2-1.5-8.4-1.7-12.7
		c-0.3-5.3,0-10.6,0-15.9c0-0.4,0-0.9,0.1-1.3c0.3-1.3,0.5-2.7,2.1-3.2c1.7-0.5,2.4,0.7,3.1,2C27.1,55.5,27.3,55.6,27.8,55.9z
		 M40.3,70.3c-0.9-3.6-1.5-7.2-2.6-10.6c-0.8-2.5-2.2-3-4.4-1.5c-2.5,1.8-4.8,4-7,6.2c-1,1-1.3,2.6,0.3,3.9c0.7-0.4,1.4-0.7,2-1.2
		c2-1.8,4.5-2,6.9-2.4c0.7-0.1,1.4,0.7,2.2,1.1c-0.5,0.6-1,1.7-1.6,1.7c-3.2,0.3-5.3,2.5-7.5,4.2c-1.5,1.1-2.2,2.9-2.6,4.8
		C30.8,74.5,35.3,72.5,40.3,70.3z M40.5,74.7c-3.2,0.9-5.6,1.7-7.7,3.9c2.2,2.2,3.1,5.4,6.9,5.9C41.3,81.4,41.1,78.3,40.5,74.7z"/>
	<path class="st0" d="M90,70.5c2.9,0.8,5.1-0.3,7.4-0.8c1.3-0.2,2.6-0.5,4-0.5c0.5,0,1.5,0.7,1.5,1c0,0.7-0.4,1.7-1,1.9
		c-2.1,0.8-4.2,1.6-6.4,2.1c-3.7,0.8-6.9,2.7-10.1,4.5c-1.7,0.9-3.4,1.9-5.1,2.6c-1.1,0.4-2.4,0.7-3.6,0.6c-2-0.1-2.5-1-2-3
		c0.9-3.6,0.8-7.1-0.5-10.6c-0.2-0.6,0.1-1.6,0.5-2c0.7-0.8,3.7-1.2,5.3-1c0,0.2,0.2,0.6,0.1,0.6c-2.3,1.6-2.1,3.6-1.5,5.9
		c0.4,1.4,0.5,2.8,0.8,4.7c2-1,3.7-1.8,5.4-2.6c1.1-0.6,1.6-1.5,1.5-2.8c-0.3-3.5-0.6-7-0.8-10.4c-0.2-3.1-0.2-6.3-0.3-9.5
		c0-0.7,0.1-1.4,0.1-2c-0.2-2.6-0.9-3.2-3.5-2.3c-1.5,0.5-2.9,1.2-4.4,1.7c-1.8,0.6-3.5-0.3-4-1.9c-0.5-1.4,0.2-2.4,2.3-3.1
		c1.1-0.4,2.2-0.5,3.3-0.9c3-1,5.9-2,8.9-3.1c1.4-0.5,2.6-1.3,4-1.8c1-0.3,2.1,0,2.6,1.1c0.5,1.1,0.1,2-1.1,2.5
		c-2.7,1.1-3.3,3.5-3.4,6.1c0,2.3-0.2,4.5-0.2,6.8c0,0.6,0.3,1.2,0.5,2.4c1.4-0.8,2.6-1.4,3.7-2c1-0.6,1.9-1.2,2.9-1.7
		c1.1-0.5,2.3-0.5,2.9,0.8c0.7,1.2,0,2.2-0.9,2.9c-0.5,0.4-1.1,0.7-1.7,1c-1.7,0.9-3.4,1.8-5.1,2.6c-1.2,0.6-2.3,1.2-2.3,2.7
		C89.6,65.3,89.9,67.9,90,70.5z"/>
	<path class="st0" d="M459,36c1.6-0.4,1.8-1.8,2.3-3.1c0.9-2.8,1.4-2.9,3.9-1.2c0.2,0.1,0.4,0.1,1.1,0.2c0.2-0.8,0.3-1.8,0.7-2.6
		c0.4-0.7,1-1.6,1.7-1.7c1.1-0.2,1.9,0.7,2,1.9c0,0.6-0.1,1.1,0,1.7c0.2,1.2,0.2,2.5,0.8,3.5c1.5,2.3,1.7,4.8,1.5,7.4
		c-0.1,1.2-0.1,2.5,0.3,3.6c0.6,1.5,0.3,2.6-0.9,3.5c-1.2,0.9-2.4,1.7-3.5,2.6c-0.9,0.7-1.8,1.6-2.9,2.6c1.8,0.7,2.6-0.3,3.5-0.7
		c1.1-0.5,2.3-0.7,3,0.5c0.8,1.4-0.1,2.3-1.2,3c-1.7,1.1-3.4,2.2-5.2,3.2c-3.3,1.7-4.8,0.7-5.4-2.8c-0.3-2.1-0.5-3.9,0.6-5.8
		c0.7-1.3-0.2-2.5-1.1-3.8c-1.4,0.6-1.5,1.5-1.6,2.7c-0.1,1.3-0.6,2.6-1.3,3.6c-0.8,1.1-2.2,0.6-2.4-0.8c-0.1-0.3,0-0.7,0-1
		c-0.2-4.6-0.3-9.2-0.5-13.8c-0.2-4.1,0.3-4.5,4-2.8C458.5,36,458.8,36,459,36z M466.2,36.7c-1.9,0.6-2.7,1.5-2.1,2.4
		c0.2,0.3,1,0.6,1.4,0.5C466.8,39,467.2,38,466.2,36.7z M460.6,41.8c-0.2-0.3-0.2-0.5-0.3-0.6c-0.2,0.2-0.5,0.3-0.7,0.5
		c0,0,0.2,0.5,0.2,0.5C460.1,42,460.4,41.9,460.6,41.8z"/>
	<path class="st0" d="M262.4,56.1c0.9-0.7,1.7-1.4,2.5-2.1c0.8-0.7,1.8-1.3,2.7-0.5c1.1,1,0.6,2.1-0.2,3c-0.6,0.7-1.3,1.3-2,1.8
		c-2.1,1.5-2.6,3.3-1.9,5.8c0.7,2.8,0.9,5.8,1.1,8.7c0.2,3.9-1.2,7.3-3.7,10.2c-2,2.3-6.5,3.6-9.2,2.4c-0.5-0.2-0.6-1-1.1-1.6
		c0.7-0.2,1.1-0.5,1.5-0.5c4.7,0.1,7.1-2.9,8.1-6.8c1.2-4.2,0.9-8.5-1-12.6c-0.1-0.3-0.4-0.6-0.5-0.8c-3.4,0.6-5.9,4.7-9.9,1.6
		c1.3-2.4,3.5-3.6,5.6-4.6c3.7-1.7,4-2.5,1.8-6.4c-1.4,0.2-2.8,0.5-4.2,0.6c-0.5,0-1.2-0.6-1.4-1.1c-0.2-0.3,0.2-1.1,0.6-1.4
		c0.9-0.8,1.9-1.7,3-2.2c2.2-1.2,2.9-3,2.4-5.7c-1.1-0.1-2.3-0.2-3.5-0.4c-1.1-0.2-2.5-0.5-2.3-1.9c0.1-0.7,1.2-1.7,2-1.9
		c3.7-1,7.3-2.2,10.7-4.1c0.5-0.3,1.1-0.5,1.6-0.5c1.3-0.1,2.2,0.6,2.5,1.8c0.3,1.2-0.3,1.9-1.4,2.4c-1.8,0.7-3.7,1.5-5.7,2.4
		c0.7,1.5,1.1,2.6,1.6,3.9c1.4-0.3,2.6-0.8,3.7-0.8c0.9,0,2.1,0.5,2.5,1.2c0.8,1.2-0.6,1.7-1.4,2.2c-0.9,0.6-2,1.1-3,1.6
		C260.6,51.4,260.5,52,262.4,56.1z"/>
	<path class="st0" d="M31.1,17.6c2-0.6,3.4-0.9,4.7-1.4c2.4-0.9,4.2-0.6,4.8,0.8c0.6,1.4-0.5,2.7-3.1,3.6c-1.6,0.5-3.2,1.3-4.8,1.5
		c-3.8,0.4-5.1,3-5.9,6.1c-0.5,2-0.5,4.2-0.8,6.9c3.9-0.8,7.2-1.8,9.4-4.9c1.8-2.5,2.3-2.6,4.6-0.4c3.2,3,5,10.5,2.4,15.5
		c-0.4,0.8-1.1,1.5-1.7,2.3c-0.2-0.1-0.5-0.1-0.7-0.2c0-0.8-0.3-1.7,0-2.4c1.5-3.2,0.5-5.9-1.2-8.6c-1.2-1.9-1.7-1.9-3.4-0.7
		c-2.5,1.7-5.1,3.3-7.7,4.8c-0.8,0.4-1.7,0.7-2.6,0.9c-3.3,0.5-5.3-1.5-4.5-4.7c0.6-2.5,1.5-4.9,2.3-7.4c0.3-1.2,0.6-2.3,0.9-3.5
		c-1.7-1.2-3.1-0.5-4.4-0.1c-0.8,0.2-1.5,0.7-2.2,0.7c-1.5,0.1-2.6-0.8-3.1-2.2C13.8,22.6,15,22,16,21.6c1.8-0.7,3.6-1.3,5.5-1.6
		c2.6-0.4,4.4-1.6,4.9-4.4c0.2-1,0.5-2,0.9-2.9c0.7-2.2,1.6-3,2.9-2.6c1.9,0.6,1.6,2.2,1.5,3.7C31.5,14.7,31.3,15.7,31.1,17.6z"/>
	<path class="st0" d="M158.8,63.6c0.2,3.3-0.9,4.2-3.8,2.9c-1.5-0.6-2.8-1.5-4.8-0.8c-0.1,1.1-0.2,2.3-0.2,3.5c0,2.7,0.1,5.4,0,8.1
		c-0.2,3.5-1.8,4.5-5.2,3.6c-2-0.5-3.4-1.6-4.2-3.5c-0.5-1.1-1.1-2.2-1.7-3.6c-1.6,1-3.1,2-4.7,3.1c-1.3-1.9,0-2.7,0.8-3.7
		c3.3-3.7,6.3-7.6,8.5-12.1c0.5-1,0.9-2.1,1.1-3.2c0.1-0.6-0.2-1.2-0.3-2.4c-1.5,0.8-2.8,1.4-4,2.1c-1.7,0.9-3.4,1.2-5.2,0.4
		c-1.8-0.8-2-2.6-0.2-3.6c1.4-0.8,3.1-1.3,4.7-1.9c2.1-0.8,4.5-1,4.1-4.3c-0.1-1.1,1.6-1.7,2.6-0.9c1.2,1,2.3,1.5,3.9,1.6
		c1.5,0.1,2,1.7,0.7,2.7c-2.7,2.1-1.6,4.7-1.2,7.1c0.1,0.7,1.1,1.4,1.8,1.8C153.7,61.6,156.3,62.6,158.8,63.6L158.8,63.6z
		 M146.1,77.2c0.1-3.4,1.3-6.9-0.9-11c-1.3,1.5-2.2,2.7-3.2,3.7c-1.2,1.2-1.3,2.6-0.5,4C142.5,75.5,142.9,78,146.1,77.2z"/>
	<path class="st0" d="M384,43.9c1.4,0.3,1.8-0.7,2-1.7c0.2-0.9,0.3-1.8,0.5-2.7c0.3-1.3,1-2.6,2.4-2.4c0.8,0.1,1.4,1.3,2.6,2.5
		c-0.3,0,0.3-0.1,0.8,0c0.6,0.1,1.4,0.3,1.6,0.7c0.2,0.5,0.1,1.3-0.2,1.8c-0.3,0.6-0.9,1-1.3,1.5c-1.8,2.1-0.8,5.5,1.8,6.2
		c1.4,0.4,2.4-0.3,3-1.5c0.5-1,0.7-2.2,1.3-3.1c0.4-0.6,1.3-0.9,2-1.4c0.4,0.7,1.3,1.5,1.2,2.2c-0.2,1.7-0.5,3.4-1.2,4.9
		c-1.4,3.1-4.6,4.4-8,2.9c-2-0.9-3.4-0.9-4.6,1c-0.3,0.5-0.8,0.8-1.2,1.1c-1.3,1-2.7,1.8-4.3,1.1c-1.6-0.7-1.6-2.3-1.6-3.8
		c0.1-6,0.2-12,0.3-17.9c0-1.6,0.6-2.7,2.2-3.4c2-0.8,3.8-2,5.8-2.8c1.8-0.8,2.8-0.4,3.4,1c0.6,1.5-0.2,2.4-1.4,3.1
		c-1.3,0.7-2.7,1.2-4,1.9C384.1,36.9,383,40.1,384,43.9z M383.7,53.3c3.2-1.4,4.3-2.7,4-4c-0.3-1.3-1.6-1.8-4.3-1.5
		C383.5,49.5,383.6,51.2,383.7,53.3z"/>
	<path class="st0" d="M469.7,81.4c0.7-1,1.2-1.5,1.5-2.1c0.3-0.7,0.3-1.7,0.7-2.2c0.6-0.7,1.6-1.6,2.2-1.5c1.3,0.2,1.6,1.6,1.2,2.7
		c-0.6,1.8-1.5,3.5-2.3,5.3c3.2,1.1,5.4-3.2,8.7-1.4c0.1,1.6-0.7,2.6-2,3.2c-3.8,1.7-7.6,3.4-11.4,5.1c-0.9,0.4-2,0.5-3,0.4
		c-2.1-0.2-3.1-2.2-1.6-3.6c1.6-1.6,1.4-3,1-4.9c-0.9-3.8-1.7-7.6-2.1-11.5c-0.2-1.8,0.7-3.7,1.1-5.5c0.1-0.3,0.5-0.5,0.8-0.6
		c1.4-0.8,6.7,0.2,7.9,1.6c1.4,1.5,1.3,3.8-0.4,6.2c-0.8,1.2-1.8,2.3-2.6,3.5C468.6,77.6,468.2,79.2,469.7,81.4z M467.8,71.4
		c0.3,0,0.6,0.1,1,0.1c0-0.7,0.1-1.4,0.1-2c-0.7,0.2-1,0.4-1.1,0.7C467.7,70.6,467.8,71,467.8,71.4z"/>
	<path class="st0" d="M386.1,75.2c0-0.2,0-0.5,0-0.7c0.3-2.4-0.2-5.3,1-7.2c1.2-1.9,3.9-2.8,6.1-4c2.3-1.3,5.3-0.5,7.4,1.6
		c4.5,4.6,3.3,13.8-0.6,17.3c-0.4,0.4-0.8,0.9-1.3,1c-2.7,0.7-5.5,1.5-8.3,2c-2.6,0.4-3.2,0-3.7-2.6c-0.4-2.4-0.5-4.9-0.7-7.4
		C386,75.2,386,75.2,386.1,75.2z M398.5,69c-0.6-2.6-1.9-3.5-4.1-2.6c-2.8,1.3-4.6,3.3-4.7,7.1C392.8,72,395.6,70.5,398.5,69z
		 M390.6,80.8c3-0.7,7.2-4.1,8.7-7.1c-0.5-0.1-1.1-0.5-1.5-0.4c-3.5,1-5.6,3.7-7.5,6.6C390.2,80.1,390.4,80.4,390.6,80.8z"/>
	<path class="st0" d="M321.4,50.2c1.5-0.3,2.5-0.4,3.4-0.7c3.8-1.1,7.4,1.8,7,5.5c-0.2,1.9,0.2,3.8,0.2,5.7c0,0.5-0.2,1.1-0.5,1.6
		c-1.1,2.1-2.4,4-3.4,6.1c-1.2,2.6-3.3,4.3-5.5,5.9c-1.2,0.8-2.4,1.1-3.8-0.7c4.2-2.1,7-5.1,7.3-10.4c-1.3,0-2.4-0.1-3.6,0
		c-1,0.1-2,0.5-3,0.7c-1.9,0.3-3.1-0.2-3.2-1.5c-0.2-1.7,1-2.1,2.3-2.3c2.2-0.4,4.5-0.6,6.7-1.1c0.9-0.2,2.1-0.9,2.3-1.5
		c0.2-1.2,0-2.7-0.6-3.8c-0.2-0.5-1.8-0.5-2.7-0.3c-1.4,0.3-2.7,1.1-4.1,1.5c-3,0.9-4,0-4-3c0.1-2.1,0.1-4.3,0.2-6.4
		c0.1-1.8,1.4-3,3-2.9c1.9,0.2,2.6,1.4,2.2,3.7C321.7,47.2,321.6,48.5,321.4,50.2z"/>
	<path class="st0" d="M309.3,59.8c1.3-0.7,2.4-1.3,3.5-1.9c0.2,0.2,0.5,0.3,0.7,0.5c-0.3,1.1-0.3,2.3-0.9,3.3
		c-2.8,4.5-5.7,8.9-8.6,13.2c-1.8,2.6-4.6,2.5-5.6-0.5c-0.9-2.6-2.5-5-2.4-7.9c0-1.3-0.7-2.6-1-3.9c-0.9-3.6,0.9-5.8,4.6-5.6
		c0.3,0,0.7,0,1,0C305,56.7,305.7,57,309.3,59.8z M301.9,68.2c1.7-0.4,2.7-1.5,3.4-3.5C303.1,65.2,302,66.2,301.9,68.2z M299.2,62
		c0.2,0.2,0.3,0.5,0.5,0.7c0.3-0.1,0.7,0,0.9-0.2c0.3-0.2,0.5-0.6,0.7-1c-0.1-0.2-0.3-0.3-0.4-0.5C300.3,61.4,299.7,61.7,299.2,62z"
		/>
	<path class="st0" d="M355.1,62.3c0-0.7-0.1-1.1,0-1.1c3.1-2.2,2.6-5.4,2.5-8.5c0-1-0.2-2-0.3-3c-0.1-1.3,0.4-2.2,1.8-2.4
		c1.3-0.2,2.4,0.6,2.5,2.1c0.1,2,0,4,0,6.3c2-0.2,3.2-1.3,4.4-2.5c1.8-1.7,3.9-2.9,6.7-2.9c0.4,1.6-0.5,2.4-1.4,3.2
		c-2.2,2.2-2.8,5-2.6,8.3c1-0.2,1.7-0.2,2.4-0.4c1-0.3,2-0.2,2.2,0.8c0.1,0.7-0.3,1.6-0.7,2.3c-0.2,0.3-0.7,0.6-1.1,0.7
		c-2.4,0.4-3.1,2.2-3.9,4.2c-0.7,1.7-1.9,3.3-3.2,4.7c-0.4,0.5-1.8,0.6-2.3,0.2c-1-0.6-0.5-1.6,0.3-2.2c2.1-1.7,3.1-4.1,1.9-6.3
		c-1.1-1.9-3.3-3.2-6-2.8C357.3,63.1,356.1,62.5,355.1,62.3z"/>
	<path class="st0" d="M439.1,75.9c0.2-4.8,2.5-9.3,0.6-14.1c-2.7,0.8-3.2,3.2-4.6,4.6c-1.4,1.4-1.6,4-4.4,4
		c-0.4-1.6,0.6-2.5,1.2-3.5c2.8-4.2,5.7-8.4,8.5-12.6c0.3-0.5,0.6-1,0.7-1.5c0.4-1.7-0.6-2.6-2.3-2.1c-1.3,0.4-2.6,0.8-3.9,1
		c-1.2,0.2-2.3-0.1-2.6-1.5c-0.4-1.4,0.5-2.2,1.7-2.5c3.5-1,6.9-1.9,10.5-2.6c0.8-0.2,2.2,0.4,2.5,1c0.4,0.7,0.1,1.9-0.3,2.8
		c-0.3,0.8-1.2,1.3-1.7,2c-1,1.4-2,2.9-3,4.5c1.5,1.2,2.7,0.7,3.8,0.5c0.8-0.1,1.6-0.6,2.3-0.5c1,0.3,2.3,0.9,2.6,1.7
		c0.4,1.2-1,1.5-2,1.7c-0.8,0.2-1.6,0.3-2.3,0.6c-2.9,1-3.2,1.6-3.3,4.7c-0.1,3.3-0.5,6.5-0.8,9.8C442.2,75.5,441.4,76.5,439.1,75.9
		z"/>
	<path class="st0" d="M158.9,63.7c0.3-1.3,0.3-2.7,2.2-2.9c0.4-0.1,1-1.1,1-1.8c0-0.9-0.5-1.7-0.7-2.6c-0.8-2.8-0.2-3.5,2.7-3.8
		c0.9-0.1,1.7-0.5,2.5-0.8c3.1-1.5,4.8-1.4,6.5,0.5c1.6,1.7,2,5.8,0.2,7.5c-2.2,2.2-4.8,4-7.5,5.5C163.2,66.7,160.7,65.8,158.9,63.7
		C158.8,63.6,158.9,63.7,158.9,63.7z M167.5,59.9c1.5-1.4,2.5-2.4,1.3-4.5C166.9,56.4,166.7,57.8,167.5,59.9z"/>
	<path class="st0" d="M209.8,69.1c2.8-1.1,3.3-3.3,3.1-5.6c-0.4-3.7-1-7.3-1.5-11c-0.2-1.4-0.6-2.8-0.8-4.2c3.1-1,3.4-1,4.2,1.2
		c0.8,2.2,1.5,4.5,1.7,6.8c0.4,4.1,0.5,8.3,0.6,12.5c0,0.6-0.5,1.5-1,1.9C214.4,71.9,211.7,71.2,209.8,69.1z"/>
	<path class="st0" d="M223.2,72c-0.2-0.9-0.4-1.5-0.4-2.1c0.3-3.8,0.4-7.6-0.4-11.4c-0.3-1.2,0-2.6,1.7-2.7c1.4-0.1,2.3,0.6,2.6,2.1
		c0,0.1,0.1,0.2,0.1,0.3c-0.2,3.5-0.2,6.9-0.5,10.4C226,70,225.7,71.8,223.2,72z"/>
	<path class="st0" d="M151.5,40.8c-1.1,0.7-2.1,1.6-3.2,2.1c-1.9,0.9-3.8,1.7-5.8,2.5c-1.2,0.5-2.9-0.4-3.5-1.7
		c-0.6-1.4,0.2-2.1,1.3-2.7c0.9-0.4,1.9-0.7,2.8-1c1.2-0.4,2.5-0.8,3.7-1.3C149.1,37.9,149.8,38.1,151.5,40.8z"/>
	<path class="st0" d="M204.6,74.6c-1.6,0.7-2.3-0.4-2.7-1.4c-0.7-1.9-1.4-3.8-1.9-5.7c-0.6-2.2-1-4.4-1.5-7.1c1-0.3,2.1-1,2.9-0.7
		c0.7,0.3,1.2,1.5,1.4,2.4c0.4,1.5,0.4,3.1,0.6,4.7C203.7,69.4,204.2,71.9,204.6,74.6z"/>
	<path class="st0" d="M299.5,46.1c-1.6,0.3-2.9-0.3-4-1.4c-0.8-0.8-0.7-1.9,0.4-2.1c3.3-0.6,6.6-1.1,9.9-1.4
		c1.1-0.1,2.2,0.8,2.1,2.2c-0.1,1.3-1.1,1.5-2.2,1.6C303.7,45.3,301.6,45.7,299.5,46.1z"/>
	<path class="st0" d="M441.8,39.3c-2.5,1-5,2.1-7.8,2.2c-0.7,0-1.5-0.4-2.1-0.9c-0.8-0.7-0.8-1.8,0.3-2.1c2.4-0.6,4.8-1.1,7.2-1.4
		c0.8-0.1,1.7,0.7,2.5,1.1C441.9,38.6,441.9,39,441.8,39.3z"/>
</g>
</svg>
