<?xml version="1.0" encoding="utf-8"?>
<!-- Generator: Adobe Illustrator 19.2.1, SVG Export Plug-In . SVG Version: 6.00 Build 0)  -->
<svg version="1.1" id="Layer_1" xmlns="http://www.w3.org/2000/svg" xmlns:xlink="http://www.w3.org/1999/xlink" x="0px" y="0px"
	 viewBox="0 0 724.6 131.5" style="enable-background:new 0 0 724.6 131.5;" xml:space="preserve">
<style type="text/css">
	.st0{display:none;}
	.st1{fill:#FFFFFF;}
	.st2{fill:none;}
	.st3{fill:#D5AF35;}
</style>
<rect class="st0" width="724.6" height="131.5"/>
<g>
	<path class="st1" d="M364.6,39.6c0.5,2.6,0.9,5.1,1.4,7.6c2.6-0.5,5.2-1,7.8-1.6c0.8-0.2,1.7-0.9,2.4-0.8c1.9,0.4,3.6,1.2,5.4,1.9
		c-1.3,1.1-2.4,2.4-3.9,3.2c-2.7,1.5-5.6,2.5-8.3,4c-0.6,0.4-1.1,1.8-0.9,2.6c0.3,1.5,1.2,2.9,2,4.6c2.8-1.3,5.4-2.9,8.3-3.9
		c1.2-0.4,2.8,0.1,4.2,0.2c-0.7,1.6-1,3.6-2.2,4.6c-3,2.4-6.5,4.2-9.4,6.1c2,6.7,1.9,12.7,0.6,18.5c-0.7,3.4-2.6,6.5-4.1,9.6
		c-3.2,6.6-9.9,6-15.7,7.1c-0.9,0.2-2.2-2-3.4-3.2c1.1-0.5,2.2-1.5,3.3-1.6c7.5-0.4,11.3-3.1,13-10.5c1-4.5,1.1-9.3,1.4-13.9
		c0.2-2.8-1.4-3-3.6-1.9c-2.7,1.4-5.5,2.9-8.4,3.6c-1.6,0.4-3.6-1-5.4-1.5c0.4-1.2,0.5-3,1.3-3.5c3.6-1.9,7.3-3.5,11.1-5
		c1.9-0.8,3.4-1.6,2.6-4c-0.8-2.3-1-5-4.4-5c-1.7,0-3.5-0.1-5.2-0.5c-1-0.2-2.7-1.2-2.6-1.8c0.1-1.2,0.9-2.5,1.8-3.3
		c0.9-0.7,2.3-0.7,3.6-1c1.7-0.3,3.9-0.1,3.4-2.8c-0.4-2.4-0.1-5.4-3.4-6.3c-0.2-0.1-0.5,0-0.7-0.1c-2.5-0.4-5-1.2-4.8-4.1
		c0.2-3.1,3.2-3.4,5.6-3.8c3.2-0.5,6.4-0.7,9.6-1.3c1.6-0.3,3.1-1.4,4.7-1.8c1.9-0.5,3.9-0.9,5.8-0.7c0.8,0.1,2.1,1.5,2.2,2.3
		c0.1,0.9-0.9,2.3-1.8,2.7C373.5,36.1,369.4,37.7,364.6,39.6z"/>
	<path class="st1" d="M689.9,25.9c-2,3.6-3.5,6.3-5.5,9.8c2.8,0,4.4,0,5.9,0c2.3,0,4,0.9,4.2,3.3c0.2,2.8-2,2.3-3.8,2.7
		c-2,0.3-3.9,1.3-5.6,2.4c-3,1.7-5.7,4-8.7,5.4c-1.5,0.7-4.3,0.7-5.5-0.3c-1.6-1.3-1-3.5,0.9-5.1c0.8-0.7,1.1-2.5,0.9-3.6
		c-0.1-0.8-1.5-1.4-2.3-2.1c-0.4,0.1-0.9,0.3-1.3,0.4c0,1.8,0.2,3.6-0.1,5.4c-0.2,1.1-1.1,2.1-1.6,3.2c-1-0.6-2.7-1-2.8-1.7
		c-1.1-7.3-2.1-14.7-2.9-22c-0.1-0.9,1.6-2.1,2.6-2.9c0.5-0.4,1.4-0.2,2.2-0.3c4.8-0.8,5.9-2.2,6.1-7.1c0.1-1.7,0.9-3.4,1.4-5
		c1.9,0.6,3.7,1.1,6.2,1.8c2.1-2,3.7-0.8,5.7,2c1.7,2.5,5.1,3.8,6.8,6.3c2,3,3.4,6.6,4.4,10.1c0.3,1.1-0.8,3.5-1.9,4
		c-2.2,1-3.2-0.6-3.6-2.8C691.5,28.7,690.8,27.8,689.9,25.9z M668.2,32.7c4.4-0.4,5.5-1.6,5-5.4c-0.3-2-1.2-2.2-2.8-1.3
		C667.5,27.5,667.9,30.1,668.2,32.7z M679.3,20.3c-0.8,2.1-1.6,3.8-2,5.5c-0.2,0.7,0.5,1.6,0.7,2.4c0.6-0.4,1.5-0.6,1.9-1.1
		C681.9,24.8,681.3,22.6,679.3,20.3z"/>
	<path class="st1" d="M61.4,96.6c0.8,6-0.4,11.6-3,17c-1.4,3-3.9,3.7-6.7,3.3c-0.8-0.1-1.8-1.3-1.9-2.1c-0.1-0.7,0.9-1.9,1.7-2.2
		c2.8-1.1,4.5-3.6,3.7-6.6c-0.2-0.7-1.1-1.7-1.9-1.8c-5.5-1.4-10.1,1.6-14.8,3.6c-0.5,0.2-0.5,1.5-0.6,2.4c-0.1,1.5,0,3-0.3,4.4
		c-0.2,0.7-1.3,1.6-1.9,1.6c-0.7,0-1.9-0.9-2-1.5c-0.7-4.4-1.3-8.8-1.6-13.2c-0.5-7.3-0.7-14.7-1.2-22c-0.5-5.6,0.8-6.8,6.2-5.4
		c1.1,0.3,2.9-0.2,3.9-1c7.3-5.9,15.7-3.8,18.2,5.2c1.6,5.9,2.2,12.1,3.3,18.2C62,96.6,61.7,96.6,61.4,96.6z M53.2,82
		c-1.3-5.6-3-6.7-8.1-3.8c-2.6,1.5-4.8,3.8-6.7,6.1c-0.7,0.9-0.1,3-0.1,4.5c1.3-0.4,2.7-0.5,3.9-1.1C45.9,85.9,49.4,84,53.2,82z
		 M38.2,100.8c2.4-1.2,4.5-2.3,6.5-3.2c2.2-1,4.6-1.7,6.8-2.8c2.2-1.1,4.6-2.3,3.2-5.5C49.2,88.9,39.4,95.6,38.2,100.8z M55.5,98
		c-2.3,1.7-4.1,3-6.2,4.5C54,104.4,55.5,103.4,55.5,98z"/>
	<path class="st1" d="M202,73.8c-4.9,0.4-8.7,0.9-12.5,0.9c-1,0-2.6-1.3-2.9-2.3c-0.5-1.7,0-3.4,2.5-3.7c1.8-0.2,3.6-0.8,5.5-1.1
		c4.2-0.7,6.4-3.4,6.8-8.3c0.1-1.7,0-3.4,0-5.7c-1.8,1.1-2.9,2.2-4.2,2.4c-2,0.3-4.1,0.2-6-0.4c-0.9-0.3-1.5-2.2-1.6-3.4
		c-0.1-0.8,0.9-2.2,1.7-2.6c6.2-2.6,12.5-5.1,18.8-7.3c0.9-0.3,2.4,0.9,3.7,1.5c-0.5,1.1-0.7,2.5-1.5,3.2c-1.6,1.3-3.5,2.3-5.5,3.5
		c2.7,2.2,2.7,3.8-0.2,5.8c-0.9,0.6-0.5,3.1-0.8,5.3c3.8-1.4,7-2.5,10.2-3.6c2.1,4.1-1,5.4-2.6,6.5c-5.8,4.2-7.1,7-5.1,13.8
		c0.2,0.6,1.1,1.3,1.8,1.5c1.9,0.5,3.9,0.7,5.8,1.2c1.8,0.5,3.4,1.3,5.4,2c0.1,2.9-1,4.4-4.4,3.7c-7.9-1.4-7.9-1.3-8.4,6.6
		c-0.1,2.1-0.2,4.2-0.3,6.4c-0.1,3.2-3.1,6.5-6,6.9c-3.4,0.4-5-0.9-6.2-5.2c6.1-0.8,6.2-0.8,6.5-7.2c0.1-2.6,0-5.2,0-7.8
		c-0.3-0.2-0.6-0.3-0.9-0.5c-1.6,2.2-3.6,4.2-4.8,6.6c-1.5,3-3.3,4.1-6.9,2.9C193.7,88.4,197.6,81.4,202,73.8z"/>
	<path class="st1" d="M575,38.4c1.7-1,3.3-2.1,5-2.7c1.1-0.4,2.5-0.1,3.7-0.2c-0.2,1.1-0.2,2.4-0.8,3.2c-1.1,1.7-2.6,3.2-3.9,4.8
		c-2.8,3.2-1,9.4,3.2,10.2c1.3,0.2,3.7-0.7,4.2-1.8c1.4-2.7,1.9-5.8,2.9-8.7c0.3-0.9,1.1-1.7,1.6-2.5c0.7,0.6,1.9,1.1,2.2,1.9
		c1.7,5.5,0.3,11-2.7,15.2c-4.5,6.1-8.1,4.8-14.7,0c-2.3-1.7-3.2-3.2-5,0.5c-1.2,2.5-4.3,4.4-7.2,3.1c-1.9-0.8-3.9-3.2-4.4-5.2
		c-1.6-7-2.8-14.1-3.6-21.2c-0.2-1.6,1.5-4.2,3.1-5.2c2.9-1.7,6.4-2.4,9.7-3.6c0.8-0.3,1.5-0.8,2.3-1.1c1-0.3,2.1-0.6,3.1-0.8
		c0.3,1.4,1.1,2.9,0.8,4.1C573.3,32.6,573.2,33.7,575,38.4z M560.9,44c6.3-0.4,7.2-1.4,6.7-6.1c-0.1-1-0.8-2.5-1.3-2.6
		c-1-0.1-2.8,0.4-3.2,1.1C562.1,38.6,561.7,41.1,560.9,44z M570.4,48.9c-6.4,1.8-6.6,2.1-4.6,6.6C567.5,53.1,568.8,51.2,570.4,48.9z
		"/>
	<path class="st1" d="M33,38.6c-1.7,0.6-3.1,1.3-4.5,1.5c-2.6,0.3-5.2,0.5-7.8,0.4c-0.7,0-1.8-1.5-1.8-2.3c0-0.7,1.2-1.6,2-2
		c4.2-2.1,8.6-4,12.7-6.3c1.2-0.7,1.6-2.6,2.4-3.9c0.9-1.5,2.3-4.2,2.9-4.1c2,0.5,3.7,2.1,6.4,3.8c1.7-0.9,4.7-2.1,7.5-3.8
		c2.2-1.3,4-1,5.1,0.9c1.3,2,0.2,3-1.9,4.1c-4.7,2.4-9.1,5.2-13.6,7.9c-0.6,0.4-1.4,0.8-1.6,1.4c-1.5,5.3-2.9,10.7-4.3,16
		c0.4,0.3,0.7,0.6,1.1,0.9c1.4-0.7,2.9-1.3,4.3-2c3.8-1.9,7.6-3.8,9.6-8.1c0.5-0.9,2.5-1.8,3.5-1.6c1,0.3,2.4,2.1,2.3,3.1
		C56.8,51,56,57.5,55.1,64C55,64.8,54,65.3,53.3,66c-0.6-0.7-1.8-1.4-1.9-2.2c-0.2-2.7-0.1-5.5-0.1-8.2c0-2.9-1.3-3.3-3.5-1.8
		c-1.6,1.1-3.4,2.1-4.7,3.5c-3.1,3.3-7,2.9-10.8,2.3c-1.1-0.2-2.5-2.8-2.4-4.2C30.7,50.1,31.9,44.9,33,38.6z"/>
	<path class="st1" d="M708.7,97.4c-3.5-2.5-5.7-1.9-8.3-0.6c-5.9,3.1-11.9,6-18,8.5c-1.3,0.6-3.5-0.8-5.2-1.3c0.6-1.3,1.1-2.8,2-3.8
		c1.7-1.8,3.3-2.7,1.3-6c-2.4-3.9-3-9-4.6-13.4c-1.1-3-2.8-5.8-4.1-8.7c-1.3-3-0.2-4.4,3-4.4c3.1,0,6.2,0,9.3-0.3
		c6.6-0.7,10,1.8,10.9,8.4c0.1,0.7,0.3,1.4,0.8,2c1.8,2.3,1.7,4.1,0,6.6c-1.5,2.2-1.8,5.2-2.8,8.8c4.1-1,7.3-1.9,10.5-2.4
		c1.9-0.3,3.8,0.1,5.8,0.2C709.1,92.8,708.9,94.6,708.7,97.4z M685.8,70.5c-2.5,2.3-5.4,3.8-5.2,4.9c0.3,1.9,2.2,4.4,3.9,4.9
		c2.4,0.7,4-1.9,4.1-4.1C688.6,74.7,687.2,73.2,685.8,70.5z M686.4,90.6c0.4,0.1,0.7,0.2,1.1,0.3c0.5-1.6,1-3.2,1.6-5.5
		C684.9,86.6,685.9,88.7,686.4,90.6z"/>
	<path class="st1" d="M530.1,97.2c1.3-3.8,2.6-7.1,3.7-10.5c1.1-3.1-0.5-5.2-3.6-5.8c-2.4-0.5-4.6-1.9-7-2.6
		c-0.8-0.2-1.9,0.1-2.7,0.5c-2.3,1.2-4.4,2.9-6.9,3.5c-1,0.3-2.9-1.5-3.8-2.7c-0.3-0.4,0.9-2.4,1.8-3.2c3.1-2.5,6.3-4.9,9.5-7.3
		c0.4-0.3,0.9-0.7,1-1c0.3-4.3,0.6-8.6,0.7-12.9c0-1.8-1.7-4.1,1.4-4.9c2.3-0.6,4.7,1.5,5,4.3c0.1,1.5,0.1,3,0.1,4.5
		c0,1.3,0,2.7,0,5.2c4.7-2.3,8.8-4.3,12.9-6.3c1.9-0.9,3.8-1.9,5.8-2.5c0.8-0.2,1.9,0.5,2.9,0.8c-0.6,0.9-1,2.1-1.8,2.8
		c-3.1,2.7-6.7,5-9.3,8.1c-2.9,3.3-1.9,5.6,2.1,7.1c1.7,0.6,2.2,1.7,0.7,2.9c-2.9,2.3-3.4,5.3-3.6,8.8c-0.2,3.6-1.5,7.3-3.1,10.6
		C534.5,99.4,532.1,97.6,530.1,97.2z"/>
	<path class="st1" d="M630.1,95.8c0.1-12.1,3-23.4,7.7-35.5c-3.4,1.7-5.7,2.7-8,3.9c-2.7,1.3-4.6,0-6.3-1.8
		c-0.4-0.4,0.2-2.4,0.9-2.8c3.3-2.1,6.8-3.9,10.2-5.9c2.6-1.6,5.3-3.1,7.7-4.9c2.4-1.7,3.2,0.3,4.6,1.4c1.5,1.2,1.3,1.9,0.2,3.6
		c-2.2,3.3-3.8,6.9-5.5,10.5c-0.5,1-0.5,2.2-1,4.2c4.5-1,8.1-2,11.8-2.7c2.1-0.4,4.2-0.6,6.3-0.5c1,0,1.9,0.9,2.9,1.3
		c-0.7,0.8-1.3,2.1-2.2,2.4c-3.2,1.1-6.4,1.9-9.7,2.7c-4.3,1.1-4.8,1.9-4,6.2c1,5,2,10,2.8,15c0.2,1.1,0.1,2.8-0.5,3.5
		c-0.8,0.9-2.4,1.5-3.7,1.5c-0.5,0-1.6-2-1.4-2.9c1.7-6.2-2.5-11.2-3.4-16.9c-0.1-0.5-1-0.8-1.6-1.3c-0.4,0.5-1.1,1-1.2,1.7
		c-1.1,4.8-2.3,9.6-3.1,14.5C633.6,95.3,632.6,96.1,630.1,95.8z"/>
	<path class="st1" d="M479.8,76c-3.8,0.4-7.2,0.9-10.6,1.1c-1.5,0.1-3.2,0-4.3-0.7c-1-0.6-1.7-2.2-2-3.5c-0.1-0.4,1.7-1.7,2.6-1.8
		c4-0.2,8-0.3,12-0.1c2.6,0.1,3.7-1,3.6-3.5c-0.1-3.2-0.1-6.5-0.3-9.7c-0.2-2.6-1.8-3.8-4.5-3.3c-3.7,0.6-6.7,3.7-7.6,7.4
		c-0.4,1.8-1.6,3.5-2.5,5.2c-0.4,0-0.8,0.1-1.2,0.1c-0.5-1.2-1.4-2.4-1.5-3.6c-0.2-6.1-0.4-12.2-0.1-18.3c0.1-1.5,1.3-3.2,2.5-4.4
		c0.6-0.5,2.7-0.4,3.3,0.2c1.3,1.4,3.1,3,1.4,5.5c-0.6,0.9-0.3,2.3-0.5,4c1.6-0.4,2.8-0.7,3.9-1c6.6-2.1,11.6,1.1,12.5,8.1
		c1.5,11.6-0.6,22.5-6,32.7c-1.1,2.1-3.5,3.6-5.5,5.2c-0.4,0.3-1.9-0.2-2.5-0.8c-0.3-0.3-0.1-1.9,0.3-2.3c4.2-3,4.8-7.7,6.1-12.1
		C479.1,79.2,479.3,77.9,479.8,76z"/>
	<path class="st1" d="M565.7,94.9c0-6.9-0.2-12.7,0.1-18.4c0.1-2.8,1.2-5.1,5-3.8c0.9,0.3,2.3-0.5,3.4-1c4.3-1.6,8.8-2.7,12.7,0.6
		c4.8,4.1,6.5,10.2,4.6,15.6c-1.5,4.1-6.1,7.1-9.5,10.6c-3.6,3.8-8.3,3.1-12.5,2C566.9,99.7,565,97.1,565.7,94.9z M571.6,86
		c0.5,0,1,0.1,1.2,0c3.5-2,6.9-4,10.3-6.2c0.2-0.2-0.7-3-1-3c-2.6,0.3-5.5,0.3-7.7,1.5C571.6,79.7,570.1,82.4,571.6,86z M571.7,93.4
		c-0.3,1.2,0.8,3,3.2,2c3-1.3,5.7-3.4,8.3-5.5c1.1-0.9,1.6-2.5,2.4-3.7c-0.4-0.3-0.7-0.6-1.1-0.9C580.6,87.8,576.6,90.3,571.7,93.4z
		"/>
	<path class="st1" d="M445.4,74.2c1.3-0.1,2.2-0.2,4-0.4c-0.9,2.1-1.4,4.1-2.5,5.4c-3.1,3.7-6.6,7.2-9.9,10.7
		c-4.1,4.3-8.5,3.5-9.7-2.2c-1.6-7.2-2.3-14.7-3.3-22c-0.1-0.9,0.2-2.4,0.9-2.7c4.1-2.2,7.9-5.3,13.1-4.5c3.7,0.6,6.7,3.9,7,8
		C445.2,68.9,445.3,71.4,445.4,74.2z M430.2,70.6c0.3,0.4,1,2.3,2.2,2.7c2,0.6,6.7-3.2,6.7-4.9c0.1-2.5-0.7-4.1-3.5-4.1
		C431.9,64.2,430.2,65.7,430.2,70.6z M436.6,80c-0.5-0.3-0.9-0.7-1.4-1c-2.4,1.1-3.6,2.9-2.3,6.9C434.5,83.4,435.5,81.7,436.6,80z"
		/>
	<path class="st1" d="M249.4,70.2c-0.7,3.9-3.5,6.9-7,9.2c-2,1.3-4.3,2.5-6.6,3.1c-4.5,1.2-7.1-1.6-6.6-6.1c0.3-2.8,0.1-5.7-0.1-8.5
		c-0.3-3.1,0.4-5.1,4-5.3c2.7-0.1,5.4-0.9,8.1-1C245.8,61.4,249.4,65.1,249.4,70.2z M238.2,75.6c0.3,0.1,0.6,0.3,0.9,0.4
		c1.4-1.9,2.8-3.9,4.1-5.7c-1.9-2.5-3.7-3.7-5.9-1.7C234.2,71.4,238.9,73.1,238.2,75.6z"/>
	<path class="st1" d="M297.4,63.7c1,6.8,1.9,13.5,3,20.3c0.4,2.6-0.2,4.3-3,5.1c-3.3,0.8-6.6-0.1-7.3-2.5c-0.2-0.7,0.4-2.2,0.9-2.4
		c2.7-0.7,2.2-2.7,2-4.5c-0.5-6-1.1-11.9-1.4-17.9c-0.1-2.5,0.3-5,0.7-7.4c0.1-0.7,1.6-1.8,2-1.6c1.1,0.5,2.6,1.4,2.8,2.3
		c0.5,2.8,0.4,5.7,0.6,8.6C297.6,63.6,297.5,63.6,297.4,63.7z"/>
	<path class="st1" d="M674.9,60.8c-1.4-1.5-3.4-2.6-3.9-4.2c-0.8-2.5,1.8-2.8,3.5-3.3c4.1-1.3,8.1-2.9,12.2-3.8
		c1.6-0.4,3.5,0.8,5.2,1.2c-0.7,1.3-1,3.4-2.1,3.9C685.2,56.8,680.4,58.5,674.9,60.8z"/>
	<path class="st1" d="M645.6,33.5c1.3,2,1.9,4-1.1,5.8c-3.8,2.2-7.4,4.8-11.2,6.7c-1.9,0.9-4.3,1.5-4.6-2.4
		c-0.3-4.5-0.6-4.2,4.4-5.6C637.2,36.9,641.1,35.1,645.6,33.5z"/>
	<path class="st1" d="M318.8,79.5c-0.5,0.8-0.9,2.2-1.8,2.6c-0.7,0.3-2.4-0.6-2.8-1.4c-2.6-4.4-5.1-8.9-7.5-13.4
		c-0.5-0.9-0.4-2.2-0.2-3.3c0.2-0.8,0.9-2.1,1.5-2.2c0.9-0.2,2.4,0.2,2.8,0.9c1.8,2.5,3.4,5.1,4.7,7.8
		C316.9,73.2,317.7,76.2,318.8,79.5z"/>
	<path class="st1" d="M439,40.4c0.8,0.4,2,1.1,3.2,1.8c-0.8,1-1.5,2.2-2.5,3c-2.3,1.6-4.6,3.7-7.2,4.4c-3.1,0.8-6.5,0.5-9.8,0.4
		c-0.5,0-1.3-1.3-1.2-1.9c0.1-1,0.6-2.6,1.3-2.8C427.9,43.6,433.2,42.2,439,40.4z"/>
	<path class="st1" d="M276.1,81.7c0.3-3.7,0.8-7.4,1-11.2c0.2-2.7,2.1-2.7,3.7-2.2c1,0.3,2.5,2.2,2.3,2.8
		c-2.6,5.8-2.4,11.8-2.7,17.9c0,0.7-1.2,1.3-1.9,1.9c-0.7-0.8-1.9-1.6-2-2.4c-0.3-2.2-0.1-4.5-0.1-6.7
		C276.3,81.7,276.2,81.7,276.1,81.7z"/>
</g>
<g>
	<path class="st2" d="M121.8,93.6c1.3,0,2.4,0,3.8,0C123.7,90.6,123.3,90.6,121.8,93.6z"/>
	<path class="st2" d="M135.5,46.4c0.1,0.3,0.2,0.7,0.2,1c1.8-0.1,4,1.9,5.1-1.6c-0.1-0.4-0.2-0.8-0.3-1.2
		C138.9,45.2,137.2,45.8,135.5,46.4z"/>
	<path class="st2" d="M101.7,48.4c-1.2,0.3-2.4,0.6-3.4,1.1c-0.4,0.2-0.6,1.2-0.8,1.8c0.6,0.2,1.3,0.9,1.6,0.7c1.1-0.7,2-1.7,3-2.6
		C102,49.1,101.9,48.7,101.7,48.4z"/>
	<path class="st2" d="M111.6,49.6c-0.3-1.8-0.6-3.3-2.4-2c-1.4,1-2.9,1.8-4.3,2.7c-1,0.6-1.9,1.2-2.9,1.8c0.1,0.3,0.2,0.7,0.3,1
		c4.9,0,9.8,0.2,14.3-3.8C114.7,46.6,113.2,49.1,111.6,49.6z"/>
	<path class="st2" d="M151.6,46.6c-1.4,0.7-2.4,1.1-2.8-1.2c-0.1-0.4-1.5-0.9-1.9-0.5c-1.1,0.8-2,2-3.3,3.5c3.1,0.7,5.9,2.3,8.9,1.1
		c0.9-0.3,1.4-2,2-3C153.5,46.5,152.4,46.2,151.6,46.6z"/>
	<path class="st1" d="M140.7,71.2c-2.5,0.3-5.1,0.5-7.5,1.2c-1.6,0.4-2.5,0.7-3.1,0.5c-0.2-0.1-0.3-0.1-0.4-0.3
		c-0.3,0.6-0.6,1.7-0.6,3.4c0,1.9-0.3,3.7-0.4,5c0.2-0.3,0.4-0.6,0.6-0.9c0.8-0.9,1.8-1.5,2.8-2c3-1.5,6.1-2.6,9.1-4
		c0.6-0.3,0.9-1.2,1.4-1.9C142,71.9,141.3,71.1,140.7,71.2z"/>
	<g>
		<path class="st2" d="M111.6,49.6c-0.3-1.8-0.6-3.3-2.4-2c-1.4,1-2.9,1.8-4.3,2.7c-1,0.6-1.9,1.2-2.9,1.8c0.1,0.3,0.2,0.7,0.3,1
			c4.9,0,9.8,0.2,14.3-3.8C114.7,46.6,113.2,49.1,111.6,49.6z"/>
		<path class="st2" d="M101.7,48.4c-1.2,0.3-2.4,0.6-3.4,1.1c-0.4,0.2-0.6,1.2-0.8,1.8c0.6,0.2,1.3,0.9,1.6,0.7c1.1-0.7,2-1.7,3-2.6
			C102,49.1,101.9,48.7,101.7,48.4z"/>
		<path class="st2" d="M121.8,93.6c1.3,0,2.4,0,3.8,0C123.7,90.6,123.3,90.6,121.8,93.6z"/>
		<path class="st2" d="M135.5,46.4c0.1,0.3,0.2,0.7,0.2,1c1.8-0.1,4,1.9,5.1-1.6c-0.1-0.4-0.2-0.8-0.3-1.2
			C138.9,45.2,137.2,45.8,135.5,46.4z"/>
		<path class="st2" d="M151.6,46.6c-1.4,0.7-2.4,1.1-2.8-1.2c-0.1-0.4-1.5-0.9-1.9-0.5c-1.1,0.8-2,2-3.3,3.5
			c3.1,0.7,5.9,2.3,8.9,1.1c0.9-0.3,1.4-2,2-3C153.5,46.5,152.4,46.2,151.6,46.6z"/>
		<path class="st3" d="M125.6,93.6c-1.4,0-2.5,0-3.8,0C123.8,93.7,124.3,93.6,125.6,93.6z"/>
		<path class="st3" d="M156.6,41.2c-1.7-0.8-3.6-1.5-5.4-1.8c-7.9-1-15.6,0.2-22.8,4.6c-3,1.8-6.1,3.3-9.8,1.9
			c-3.5-1.4-7.2-1.9-11.4-3c-3.8,1-8,1.9-12,3.3c-2.7,0.9-3,3.2-1.7,6.3c2.3,5.6,8.5,6.6,13.2,5.7c3.6-0.7,7.1-2.1,10.6-3.3
			c2.8-1,2.9-0.8,3.2,2.7c0.7,8.5-1,17.1,1.2,25.5c0.2,0.8-0.1,2.2-0.6,2.8c-2.3,2.9-4.7,5.6-7,8.4c-0.2,0.3-0.4,0.4-0.6,0.6
			c1.2-0.6,6.4-1.5,8.3-1.4c1.6-3,1.9-3,3.8,0c1.3,0,8.5-0.5,10.5-0.1c-0.4-0.1-0.7-0.8-1.1-1.3c-1.5-1.9-2.9-4-4.6-5.7
			c-1.5-1.4-2.7-3.1-1.8-5.1c0.1-0.1,0.1-0.2,0.2-0.3c0.1-1.3,0.4-3.1,0.4-5c0-1.7,0.3-2.7,0.6-3.4c-0.1-0.1-0.2-0.2-0.2-0.4
			c-0.3-0.6-0.3-1.7-0.4-3.4c-0.1-4.9-0.1-9.8-0.2-14.8c0-2,0.8-2.6,2.2-2.4c3.3,0.3,6.6,0.6,9.9,0.9c2.4,0.2,4.7,0.5,7.1,0.7
			c2.3,0.2,4.6,0.4,6.8,0.3c2.2-0.2,4.1-3.1,4.4-6.4C159.6,44.4,158.7,42.2,156.6,41.2z M97.5,51.3c0.3-0.6,0.4-1.6,0.8-1.8
			c1.1-0.5,2.3-0.8,3.4-1.1c0.1,0.3,0.2,0.7,0.3,1c-1,0.9-1.9,1.9-3,2.6C98.8,52.2,98,51.5,97.5,51.3z M102.3,53.1
			c-0.1-0.3-0.2-0.7-0.3-1c1-0.6,1.9-1.2,2.9-1.8c1.4-0.9,2.9-1.8,4.3-2.7c1.8-1.2,2.2,0.2,2.4,2c1.6-0.6,3.2-3,5-0.2
			C112.1,53.3,107.2,53.2,102.3,53.1z M135.8,47.4c-0.1-0.3-0.2-0.7-0.2-1c1.7-0.6,3.4-1.2,5.1-1.7c0.1,0.4,0.2,0.8,0.3,1.2
			C139.8,49.3,137.5,47.3,135.8,47.4z M152.4,49.5c-3,1.2-5.8-0.4-8.9-1.1c1.3-1.5,2.2-2.7,3.3-3.5c0.4-0.3,1.8,0.2,1.9,0.5
			c0.5,2.3,1.4,2,2.8,1.2c0.8-0.4,1.9-0.1,2.9-0.1C153.8,47.5,153.3,49.2,152.4,49.5z"/>
		<path d="M113.2,95.2c0.1,0,0.1-0.1,0.2-0.1C113.4,95.1,113.3,95.2,113.2,95.2z"/>
		<path class="st1" d="M152.1,98.4c-0.2-3-2.8-1.5-4.4-1.8c-3.5-0.8-7-1.8-10.5-2.8c-0.3-0.1-0.7-0.2-1-0.3
			c-1.9-0.4-9.2,0.1-10.5,0.1s-1.8,0.1-3.8,0c-1.9,0-7.2,0.8-8.3,1.4c-0.1,0.1-0.1,0.1-0.2,0.1c-1,0.6-1.8-0.2-2.4-1.6
			c-0.3-0.7-0.3-1.6-0.5-2.4c-0.7-3.5-1.3-7-2-10.5c-0.4-1.9-1.6-2.8-3.1-2c-1.5,0.7-1.1,2.1-0.7,3.6c0.8,2.8,1.5,5.7,2.2,8.6
			c1.5,5.6,1.5,5.5-3.3,6.7c-1.6,0.4-3.7,0.8-3.1,3.4c0.2,1,2.4,1.5,3.7,2.2c0.1,0.1,0.3-0.1,0.5-0.1c3-0.6,6.1-1,9-1.8
			c8.1-2.3,16.3-2.7,24.5-1c3.2,0.7,6.6,1,9.9,1.1C149.6,101.3,152.3,101.2,152.1,98.4z"/>
	</g>
</g>
</svg>
