<?xml version="1.0" encoding="utf-8"?>
<!-- Generator: Adobe Illustrator 19.2.1, SVG Export Plug-In . SVG Version: 6.00 Build 0)  -->
<svg version="1.1" id="Layer_1" xmlns="http://www.w3.org/2000/svg" xmlns:xlink="http://www.w3.org/1999/xlink" x="0px" y="0px"
	 viewBox="0 0 885.8 200" style="enable-background:new 0 0 885.8 200;" xml:space="preserve">
<style type="text/css">
	.st0{fill:#FFFFFF;}
</style>
<g>
	<path class="st0" d="M668.6,74.5C661.4,82,654.5,89.7,644,80c0,4.8,0,9.3,0,13.9c0,0.4,0.3,0.8,0.3,1.1c-0.4,1.5-1,2.9-1.4,4.4
		c-1.2-1.2-3.2-2.3-3.5-3.7c-0.8-3.9-1-7.9-1.4-11.9c-0.5-5.3-1.2-10.6-1.3-15.9c0-1.7,1.2-4.2,2.5-4.9c2.2-1.2,4.4-0.3,5.5,2.6
		c1.1,3.2,2.6,6.4,4.2,9.4c2.2,3.8,6.3,4.8,9.7,2.1c3.7-2.9,6.9-6.3,7.6-11.3c0.3-2.5,1.2-4.8,4.1-4.7c2.7,0.1,3.9,2.1,4.1,4.8
		c0.9,10,1.9,20,2.7,30c0.1,1-1,2.1-1.5,3.2c-0.7-1-1.8-1.9-2.1-2.9C671.9,89.2,670.3,82.3,668.6,74.5z"/>
	<path class="st0" d="M343.9,83.1c-4.5,1.4-8.5,2.7-12.5,3.9c-3.1,0.9-6.2,1.7-9.2,2.8c-0.6,0.2-1.1,1.8-1.1,2.7
		c0,3.6,0.3,7.2,0.3,10.8c0,0.9-0.9,1.7-1.3,2.6c-0.7-0.7-1.8-1.3-2-2.2c-0.5-1.5-0.6-3.2-0.7-4.8c-0.8-10.5-1.5-21-2.3-31.5
		c0-0.6-0.5-1.2-0.5-1.8c0.1-1.4,0-3.3,0.8-4c0.9-0.8,3-1.1,4.1-0.5c1,0.5,1.7,2.3,1.8,3.6c0.2,4.2,0,8.5-0.1,12.7
		c0,1.6,0,3.2,0,4.6c4.1-0.5,7.8-0.8,11.4-1.5c3.4-0.7,6.7-1.7,9.9-2.8c0.7-0.3,1.2-1.9,1.2-3c0.1-4.1-0.1-8.2,0.1-12.3
		c0.1-1.5,1-2.9,1.5-4.4c1,0.4,2.4,0.5,2.8,1.2c0.7,1.2,1,2.7,1,4.1c0,5.6-0.3,11.2-0.1,16.7c0.3,5.9,1.1,11.9,1.5,17.8
		c0,0.7-0.9,1.4-1.4,2.2c-0.7-0.8-1.8-1.5-2-2.4c-1-3.8-1.6-7.7-2.4-11.6C344.3,85.1,344.1,84,343.9,83.1z"/>
	<path class="st0" d="M148.4,110.7c-3-10.1-5.8-20.3-5.8-30c-4-1.2-7.3-1.6-9.9-3.2c-5.9-3.5-11.3-7.6-17-11.4
		c-2.1-1.4-3.3-3.6-1.7-5.6c1.3-1.7,3.6-2.9,6.1-0.6c3.8,3.6,7.9,6.9,12,10.2c2.1,1.7,4.2,3.4,6.5,4.7c2.1,1.2,4.3,1.7,6.1-1.2
		c2.1-3.5,4.5-6.7,7-9.9c2.6-3.2,5.4-6.3,8.4-9c0.9-0.8,3.1-0.2,4.7-0.3c-0.3,1.9,0,4.7-1.1,5.5c-5.7,4-8.6,10.3-13,15.2
		c-0.8,0.9-1,2.6-1,3.9c0.6,8.7,1.3,17.4,1.9,26c0.1,1.8-0.6,3.7-0.9,5.6C149.9,110.6,149.1,110.6,148.4,110.7z"/>
	<path class="st0" d="M762.2,88.5c2.2,0.8,4.5,1.8,6.8,2.4c2.3,0.6,4.6,0.8,6.9,1.5c0.7,0.2,1.3,1.4,1.4,2.2
		c0.1,0.6-0.7,1.6-1.3,1.9c-5.8,2.7-17.4-1.1-19.3-6.9c-2.1-6.4-1.7-13.1,2.1-19c2.8-4.3,9.1-4.7,13.5-1.2c3.7,3,4.7,10,1.7,13.3
		c-0.8,0.9-2.3,1.3-3.5,1.6c-2.7,0.8-5.4,1.6-8.1,2.3C762.3,87.3,762.2,87.9,762.2,88.5z M762.2,80.1c2.1-0.8,3.9-0.9,4.9-2
		c0.9-0.9,0.9-2.7,1.1-4.2c0-0.2-2-1.1-2.3-0.8C764.1,75,761.9,76.7,762.2,80.1z"/>
	<path class="st0" d="M442.8,80.2c0-5.4-0.1-10.9,0.1-16.3c0.1-1.2,1.4-3.1,2.4-3.3c2-0.4,3.5,1,3.6,3.3c0,1.1,0,2.2,0,3.4
		c0.2,6.3,0.3,12.7,0.5,19c0,0.9,0.2,1.7,0.4,2.6c1.3,5.6-1.9,10-7.6,10.7c-0.6,0.1-1.3,0.2-1.9,0.1c-3.2-0.4-8.1,0.2-9.1-1.6
		c-2.1-3.4-0.9-8,1.5-11.6C435.8,81.9,435.9,82,442.8,80.2z M445.5,90.7c-2.3-2-3.4-3.8-4.9-4.2c-2.1-0.5-5.2,3.5-5.1,6.6
		c0,0.8,1.7,2.3,1.9,2.2C439.9,94.2,442.1,92.7,445.5,90.7z"/>
	<path class="st0" d="M210.5,95.7c1.5-0.4,3.4-0.2,4-1c1.6-2.2,3.4-4.8,3.8-7.4c0.4-2.9,2.2-4.1,4.3-4.3c1.1-0.1,3.4,1.8,3.5,3
		c0.9,7.2,1.4,14.5,2.1,22.4c-5.5-2-5.9-7.1-7.8-11c-1.6,1.1-3.2,1.8-4.3,3c-2.3,2.5-5.4,2.8-7.8,1.4c-1.8-1.1-3.4-3.7-3.7-5.9
		c-0.3-2.9,0.7-6,1.2-8.9c0.1-0.7,0.2-1.5,0.4-2.2c0.3-1.2,0.8-3.5,1-3.5c1.8,0.1,3.8,0.4,5.2,1.3c0.7,0.5,0.7,2.6,0.5,3.9
		C212.3,89.3,211.5,92,210.5,95.7z"/>
	<path class="st0" d="M191.8,90.5c0.3,7.7-5.5,14-12.6,12.9c-3.5-0.5-6.8-1.2-8.2-4.7c-1.6-3.9-1.9-8.2,0.5-11.8
		c1.6-2.4,3.9-4.7,6.3-6.3C184.9,75.8,193.4,82.8,191.8,90.5z M185.7,89.1c-0.3-0.3-1.1-2.1-2.3-2.4c-2.7-0.7-5.7,1.9-6.3,5.7
		c-0.2,1.4,0.7,3,1.3,4.4c0.1,0.3,1.1,0.3,1.8,0.3C183.9,97.1,185.6,95,185.7,89.1z"/>
	<path class="st0" d="M377.1,89.7c-0.7,1-1.2,1.7-1.7,2.3c-3,3.8-8.1,5.4-11.4,3.4c-2.3-1.3-3.5-6.6-1.3-10.3c2-3.3,3.2-8.3,8.6-8.1
		c3,0.1,6,0.8,9,1.4c0.4,0.1,0.7,1,0.9,1.5c1.5,5,3,10,4.3,15.1c0.3,1-0.5,2.3-0.8,3.5c-1.2-0.4-3-0.5-3.6-1.4
		C379.5,95,378.5,92.6,377.1,89.7z M372.4,82.9c-1.7,1.8-3.3,3.3-4.6,4.9c-0.5,0.6-0.7,1.5-1.1,2.3c0.9,0.1,2,0.5,2.7,0.1
		C372.3,88.8,372.5,86.1,372.4,82.9z"/>
	<path class="st0" d="M733.8,88c-1-1.8-1.5-2.9-2.1-4c-0.6-1.1-1.3-2.2-2-3.3c-1.2,0.9-3.1,1.7-3.5,2.9c-0.9,2.8-1.2,5.8-1.5,8.8
		c-0.2,2.1-0.5,3.8-2.9,3.9c-2.7,0.2-3-1.8-3.2-3.7c-0.5-3.9-1.1-7.8-1.3-11.8c-0.1-1.5,0.8-3.2,1.7-4.5c0.2-0.3,2.2,0.8,3.4,1
		c0.9,0.2,2.3,0.3,2.8-0.2c5.6-5.8,8.9-5.3,11.4,2.4c1.4,4.3,2.1,8.9,2.7,13.5c0.1,1-1.4,2.2-2.2,3.3c-0.9-0.8-2.3-1.5-2.6-2.4
		C734,91.8,734,89.5,733.8,88z"/>
	<path class="st0" d="M572.6,93.4c-0.3-2.2-0.3-4.5-1-6.6c-0.3-1-1.8-1.9-2.9-2.2c-0.5-0.1-1.9,1.4-2.1,2.3
		c-0.5,3.1-0.4,6.2-0.9,9.3c-0.2,1.4-1.2,3-2.3,3.7c-0.8,0.5-2.9,0-3.6-0.8c-0.7-0.9-0.7-2.5-0.7-3.9c0-4.7,0-9.4,0.2-14.1
		c0.1-1.7,0.9-3.3,1.4-4.9c1.3,0.5,2.5,0.9,3.8,1.4c1.1,0.4,2.2,1.1,3.4,1.2c4.6,0.5,8.3,3.1,9.3,7.6c0.7,3,0.7,6.2,0.7,9.3
		c0,2.2-1.1,4-3.5,3.9c-2.9-0.1-2.2-2.4-2.2-4.2c0-0.6,0-1.2,0-1.9C572.4,93.5,572.5,93.5,572.6,93.4z"/>
	<path class="st0" d="M406.7,86.8c-1,3.2-1.9,6.4-3,9.5c-0.7,1.9-1.7,3.8-4.2,3.2c-2.5-0.6-3.3-2.4-3.1-4.8
		c0.4-3.8,0.7-7.6,1.2-11.3c0.2-1.3,0.8-2.4,1.3-3.7c1,0.4,1.9,1,2.9,1.2c0.9,0.3,2,0.5,2.9,0.3c5.6-2,9.6,1.3,11.3,6.5
		c0.6,1.9,0.8,4,0.6,5.9c-0.2,1.2-1.5,2.2-2.3,3.3c-1-1-2.3-1.9-2.9-3.2c-0.6-1.3-0.4-3-0.9-4.3c-0.4-1.1-1.3-2-2.1-2.9
		C407.8,86.6,407.3,86.7,406.7,86.8z"/>
	<path class="st0" d="M247.5,89.4c4.1-1,7-1.8,10.1-2.3c0.9-0.1,2.3,0.6,2.8,1.4c0.3,0.5-0.4,2-1,2.7c-0.7,0.7-1.9,1.1-3,1.4
		c-4.7,1.3-6.7,3.6-7.2,8.4c-0.1,0.9-0.3,1.7-0.3,2.6c-0.1,2.1-0.4,4.2-3.2,4.1c-2.8-0.1-3.1-2.3-3.2-4.6c-0.2-4.6-0.6-9.2-0.9-13.8
		c-0.1-2-0.4-4.1-0.2-6c0.1-0.8,1.7-2,2.5-1.9c0.9,0.1,1.9,1.4,2.2,2.4C246.9,85.7,247.1,87.7,247.5,89.4z"/>
	<path class="st0" d="M471.6,75.2c1.1,0.2,2.4,0.2,3.2,0.8c0.8,0.5,1.5,1.8,1.4,2.7c-0.1,0.8-1.2,1.6-2,2.1c-1.7,1.2-3.7,2-5.3,3.3
		c-0.4,0.3-0.2,2.4,0.4,2.9c1.3,1.1,2.9,2,4.5,2.4c2.9,0.7,3.1,2.4,2.6,4.8c-1,4.3-6.5,8.8-10.4,8.4c-0.8-0.1-1.6-0.8-2.3-1.3
		c0.5-0.9,0.8-2.1,1.5-2.5c6-3.4,6.1-4.2,0.6-8.1c-2.2-1.5-5.1-2.9-3.5-6C464.4,80.7,464.5,74.4,471.6,75.2z"/>
	<path class="st0" d="M539,77.3c-3.6-3-6.4-5.6-9.4-7.8c-2.2-1.6-2.6-3.8-1-5.3c1.2-1,4.4-1.3,5.6-0.4c2.9,2.4,4.4,2.1,5.6-1.4
		c0.9-2.6,3.3-2.8,4.8-1.6c1,0.8,1.2,3.4,0.9,5c-0.5,2.4-1.6,4.7-2.8,6.9C541.6,74.6,540.1,76,539,77.3z"/>
	<path class="st0" d="M695,63.6c1.3-2,2.4-3.2,2.7-4.5c0.8-3.3,2.9-2.5,4.9-1.7c2.4,0.9,2.1,2.7,1.3,4.6c-1,2.5-2,5-2.9,7.5
		c-0.9,2.5-3.5,4.1-5.7,2.7c-2.9-1.9-5.7-4.2-7.9-6.9c-1.6-2-0.5-4.3,2-5.4C692.2,58.7,694.3,59.4,695,63.6z"/>
	<path class="st0" d="M535.9,78.2c2.2,0.3,3.9,0.5,6,0.8c0,3-0.1,5.9,0,8.7c0.1,2.9,0.3,5.7,0.6,8.6c0.2,2,0.5,3.9-2.4,4
		c-2.4,0.1-4.2-0.4-4.2-3.4C535.9,90.8,535.9,84.7,535.9,78.2z"/>
	<path class="st0" d="M693.1,84.5c0.1-1.4,0-2.8,0.2-4.1c0.4-2.6,2.3-3.3,4.4-2.7c1.7,0.5,2.9,1.2,2.2,4c-1,3.8-0.5,8-0.6,12.1
		c0,0.7,0.2,1.6-0.2,2.2c-0.7,1.2-1.6,2.3-2.5,3.5c-0.7-1.2-1.6-2.4-1.9-3.7c-0.9-3.7-1.4-7.4-2.1-11.2
		C692.8,84.6,692.9,84.6,693.1,84.5z"/>
</g>
<g>
	<path class="st0" d="M79.8,107.9c-2.5,2.3-5.1,1.7-7.4-2.1c-1.8-3-4.1-5.7-6.5-8.2c-0.7-0.7-2.3-0.5-3.5-0.8
		c-0.1,1.3-0.8,2.9-0.3,3.9c1.1,1.9,2.6,3.6,4.3,5.2c2.1,2,4.5,3.6,6.5,5.6c0.6,0.6,0.7,3,0.3,3.2c-1.3,0.7-3.1,1.3-4.4,1
		c-2.6-0.7-4.8-2.4-7.4-3.2c-1.9-0.6-4.1-0.5-6.1-0.7c-0.2,0.5-0.5,1-0.7,1.6c2.3,1.5,4.6,3.1,7,4.4c1.2,0.7,2.8,0.8,3.9,1.6
		c1.1,0.8,1.8,2.1,2.6,3.3c-1.5,0.6-3.1,1.9-4.6,1.8c-4.9-0.6-10-2.5-14.2,3.4c1.5,0.3,2.6,0.8,3.7,0.7c2.3-0.1,4.6-1,6.7-0.7
		c1.7,0.2,3.1,1.8,4.7,2.8c-1,1.2-1.7,2.8-3,3.6c-2.7,1.7-5.8,2.9-8.6,4.6c-1.3,0.8-2.3,2.3-3.8,3.9c5.5,1.6,9.9,0.2,14.3-1.3
		c5-1.7,10.1-4.1,15.3-4.3c4.2-0.2,8.7,1.9,12.7,3.7c4.6,2.1,8.8,5.2,13.3,7.5c13.9,7.2,28.8,10.5,44.3,10.6
		c10.3,0.1,20.6-0.6,31-0.5c1.5,0,2.9,2,4.4,3.1c-1.2,1.2-2.2,3.2-3.5,3.4c-19.5,1.8-38.8,0.8-57.9-3.3
		c-11.5-2.5-21.7-8.1-31.6-14.4c-6.8-4.4-13.8-3.9-21.2-1.6c-6,1.9-12.3,2.8-18.6,3.7c-3.5,0.5-7.4,0.2-8.9-4
		c-1.4-4,1.2-6.7,3.6-9.3c0.5-0.5,1-1,1.4-1.5c-6.2-6.5-5.7-9.1,3.3-16.2c-1-1.3-2.3-2.5-3-3.9c-0.6-1.4-1.3-3.4-0.7-4.5
		c0.8-1.5,2.7-2.5,4.2-3.4c0.8-0.4,2-0.1,2.9-0.2c2.7-0.2,4.1-1.2,2.6-4.1c-0.5-1-1.3-2.1-1.2-3.1c0.2-2.1,0.3-4.9,1.6-6
		c1.5-1.3,4.4-1.7,6.6-1.3c2.5,0.4,4.9,2.1,7.5,3.4c0.4-0.8,0.9-1.6,1.4-2.4c3.8-6.8,8.5-7.3,13.4-1.2c4,5.1,5.6,11.1,7.2,17.3
		c1,3.9,4.4,7.6,7.7,10.3c13.7,11.4,30.8,14.6,47.5,18.2c5.4,1.2,11.3,0.4,17,0.4c0.9,0,1.7-0.8,2.7-1c1.2-0.3,2.7-1,3.6-0.6
		c0.9,0.4,2,2.5,1.6,3c-0.7,1.1-2.2,2.3-3.4,2.3c-7.3,0.4-14.8,1.4-22,0.7c-15.9-1.6-31-6.3-45.2-13.6c-3.1-1.6-5.4-4.8-7.8-7.6
		c-3.3-3.9-6.5-7.9-9.4-12c-0.7-1-0.4-2.7-0.7-4c-0.7-3.3-1.2-6.6-2.2-9.7c-0.2-0.8-1.7-1.8-2.4-1.6c-0.8,0.2-2,1.5-2,2.3
		C78.6,99.5,79.2,103.1,79.8,107.9z"/>
	<path class="st0" d="M858.1,94.4c-2.9,3.4-6,6.6-8.7,10.1c-1.3,1.7-2.7,3.4-4.6,1.7c-0.9-0.8-0.9-3.5-0.3-4.9
		c1.8-3.7,5.3-6.7,4-12.1c-2.1,2.7-4,5.5-6.4,7.9c-1.1,1.2-3,1.6-4.5,2.4c-0.4-1.7-1.2-3.4-1.1-5c0.2-3,1-5.9,0.8-9.1
		c-3.4,2-3.9,5.2-4.2,8.4c-0.1,1.6,0.3,3.3,0,4.9c-0.3,1.1-1.5,3-2.1,2.9c-1.2-0.1-3-1.1-3.4-2.1c-1-2.7-1.1-5.7-1.9-8.5
		c-0.7-2.2-1.8-4.3-2.8-6.4c-0.7,0.1-1.4,0.1-2.1,0.2c-0.6,3.4-1.9,6.9-1.8,10.3c0.2,10.5-3.8,18.3-12.8,24.1
		c-17.3,11.2-36.5,18-55.8,24.3c-3.2,1-7.2,0-10.8-0.2c-0.3,0-0.6-0.8-1-1.5c14.1-5.3,28.1-10.2,41.8-15.9c8-3.3,15.9-7.1,23-12.1
		c6.5-4.5,10.9-11.2,11.1-19.8c0.1-3.2-0.1-6.5,0.8-9.4c1.9-6.3,5.4-7.3,10.8-3.4c1.4,1,2.9,1.7,4.5,2.7c1.9-2.2,4-7.1,9.2-5.5
		c1.9,0.6,3,3.7,4.4,5.7c2.2-0.5,5.2-2.2,7.7-1.6c2,0.5,3.3,3.8,5.5,6.5c0.4-0.1,1.9-1,3.4-1c1.5,0,3.4,0.3,4.4,1.3
		c0.8,0.8,0.7,2.9,0.4,4.2c-0.7,2.4-1.9,4.7-3.3,7.7c2-0.4,3.3-1,4.6-0.9c2.6,0.2,6.6,0,7.6,1.5c1.3,2.1,1,5.8,0.2,8.5
		c-3,9.9-11.4,12.7-20.4,14.5c-3.5,0.7-7,1.5-10.5,2.3c-6,1.4-10.9,4.6-15.9,8.3c-11.6,8.5-23.8,16.3-36.2,23.6
		c-3.1,1.8-7.8,0.9-11.7,1c-0.7,0-1.9-1.6-1.9-2.5c0-0.7,1.5-2.1,2.2-2c11.4,1,19.5-5.8,27.9-11.8c7.2-5.1,13.7-11.3,21.3-15.7
		c5.7-3.3,12.5-4.7,18.9-6.6c4.1-1.3,8.4-1.9,12.4-3.1c4.9-1.5,8.2-4.7,9.3-10c0.7-3.6-1.2-4.3-3.6-3.1c-3.5,1.7-6.7,4-9.9,6.2
		c-1.7,1.2-3.2,3.3-5.3,1.2c-2.1-2.2-0.1-3.8,1.3-5.6c2.7-3.6,5.1-7.4,7.7-11.2C859.5,95.4,858.8,94.9,858.1,94.4z"/>
</g>
</svg>
